<?xml version="1.0" encoding="UTF-8"?>
<svg width="1920" height="200" viewBox="0 0 1920 200" xmlns="http://www.w3.org/2000/svg">
  <path d="M0,200 L0,120 L60,120 L60,80 L100,80 L100,100 L140,100 L140,60 L180,60 L180,100 L220,100 L220,40 L260,40 L260,100 L300,100 L300,80 L340,80 L340,120 L380,120 L380,60 L420,60 L420,100 L460,100 L460,80 L500,80 L500,120 L540,120 L540,100 L580,100 L580,40 L620,40 L620,80 L660,80 L660,120 L700,120 L700,60 L740,60 L740,100 L780,100 L780,80 L820,80 L820,120 L860,120 L860,100 L900,100 L900,40 L940,40 L940,80 L980,80 L980,120 L1020,120 L1020,60 L1060,60 L1060,100 L1100,100 L1100,80 L1140,80 L1140,120 L1180,120 L1180,100 L1220,100 L1220,40 L1260,40 L1260,80 L1300,80 L1300,120 L1340,120 L1340,60 L1380,60 L1380,100 L1420,100 L1420,80 L1460,80 L1460,120 L1500,120 L1500,100 L1540,100 L1540,40 L1580,40 L1580,80 L1620,80 L1620,120 L1660,120 L1660,60 L1700,60 L1700,100 L1740,100 L1740,80 L1780,80 L1780,120 L1820,120 L1820,100 L1860,100 L1860,40 L1900,40 L1900,80 L1920,80 L1920,200 Z" fill="#1A237E" fill-opacity="0.2"/>
</svg> 